# xmcd
#
# Track frame offsets: 
#        150
#        14025
#        36757
#        54139
#        68167
#        86768
#        111289
#        125010
#        138153
#        155357
#        173318
#        197267
#        207781
#        223712
#        238121
#        249412
#        266014
#        281087
#        291179
#        310797
#        328184
#        342234
#
# Disc length: 4776 seconds
#
# Revision: 0
# Processed by: cddbd v1.5.2PL0 Copyright (c) Steve Scherf et al.
# Submitted via: ExactAudioCopy v0.95b3
#
DISCID=4312a616
DTITLE=America  - Two Originals - America-Homecoming  FLAC
DYEAR=1900
DGENRE=
TTITLE0=Riverside
TTITLE1=Sandman
TTITLE2=Three Roses
TTITLE3=Children
TTITLE4=A Horse With No Name
TTITLE5=Here
TTITLE6=I Need You
TTITLE7=Rainy Day
TTITLE8=Never Found The Time
TTITLE9=Clarice
TTITLE10=Donkey Jaw
TTITLE11=Pigeon Song
TTITLE12=Ventura Highway
TTITLE13=To Each His Own
TTITLE14=Don't Cross The River
TTITLE15=Moon Song
TTITLE16=Only In Your Heart
TTITLE17=Till The Sun Comes Up Again
TTITLE18=Cornwall Blank
TTITLE19=Head and Heart
TTITLE20=California Revisited
TTITLE21=Saturn Nights
EXTD=
EXTT0=
EXTT1=
EXTT2=
EXTT3=
EXTT4=
EXTT5=
EXTT6=
EXTT7=
EXTT8=
EXTT9=
EXTT10=
EXTT11=
EXTT12=
EXTT13=
EXTT14=
EXTT15=
EXTT16=
EXTT17=
EXTT18=
EXTT19=
EXTT20=
EXTT21=
PLAYORDER=
